<?xml version="1.0" encoding="UTF-8" standalone="no"?>
<!DOCTYPE svg PUBLIC "-//W3C//DTD SVG 1.1//EN" "http://www.w3.org/Graphics/SVG/1.1/DTD/svg11.dtd">
<svg version="1.1" xmlns="http://www.w3.org/2000/svg" xmlns:xlink="http://www.w3.org/1999/xlink" preserveAspectRatio="xMidYMid meet" viewBox="0 0 40 12" width="40" height="12"><defs><path d="M12 6C12 9.31 9.31 12 6 12C2.69 12 0 9.31 0 6C0 2.69 2.69 0 6 0C9.31 0 12 2.69 12 6Z" id="adTg1lEs"></path><path d="M26 6C26 9.31 23.31 12 20 12C16.69 12 14 9.31 14 6C14 2.69 16.69 0 20 0C23.31 0 26 2.69 26 6Z" id="bSb0XroCu"></path><path d="M40 6C40 9.31 37.31 12 34 12C30.69 12 28 9.31 28 6C28 2.69 30.69 0 34 0C37.31 0 40 2.69 40 6Z" id="dw34ZCHru"></path></defs><g><g><g><use xlink:href="#adTg1lEs" opacity="1" fill="#56d64a" fill-opacity="1"></use></g><g><use xlink:href="#bSb0XroCu" opacity="1" fill="#bbbbbb" fill-opacity="1"></use></g><g><use xlink:href="#dw34ZCHru" opacity="1" fill="#bbbbbb" fill-opacity="1"></use></g></g></g></svg>